<?xml version="1.0" standalone="no"?>
<!DOCTYPE svg PUBLIC "-//W3C//DTD SVG 20010904//EN"
 "http://www.w3.org/TR/2001/REC-SVG-20010904/DTD/svg10.dtd">
<svg version="1.0" xmlns="http://www.w3.org/2000/svg"
 width="838.000000pt" height="845.000000pt" viewBox="0 0 838.000000 845.000000"
 preserveAspectRatio="xMidYMid meet">

<g transform="translate(0.000000,845.000000) scale(0.100000,-0.100000)"
fill="#000000" stroke="none">
<path d="M0 4225 l0 -4225 4190 0 4190 0 0 4225 0 4225 -4190 0 -4190 0 0
-4225z m4431 3855 c143 -11 237 -27 555 -95 284 -61 394 -96 599 -187 99 -44
216 -96 260 -115 44 -20 94 -46 112 -59 17 -13 36 -24 42 -24 6 0 48 -24 93
-53 46 -30 97 -61 115 -70 17 -9 79 -54 136 -99 57 -46 137 -108 177 -138 41
-30 83 -64 94 -76 12 -12 26 -23 33 -25 6 -2 44 -35 85 -72 40 -37 76 -71 81
-75 34 -32 218 -233 258 -283 28 -35 57 -71 65 -79 16 -16 38 -46 146 -195 40
-55 80 -112 88 -127 30 -53 109 -183 117 -193 19 -24 77 -141 113 -227 21 -51
63 -154 94 -228 42 -98 75 -204 122 -387 35 -139 64 -266 64 -282 0 -17 9 -72
19 -123 29 -143 41 -343 41 -687 0 -325 -12 -481 -37 -481 -7 0 -15 -10 -18
-22 -2 -13 -16 -77 -30 -143 -51 -239 -56 -260 -61 -277 -4 -12 0 -18 10 -18
24 0 20 -35 -14 -138 -16 -50 -30 -98 -30 -107 0 -21 -162 -408 -226 -540 -29
-60 -67 -130 -83 -155 -17 -25 -31 -48 -31 -51 0 -15 -213 -324 -284 -413 -93
-117 -322 -363 -408 -439 -35 -31 -99 -88 -143 -127 -66 -58 -288 -225 -354
-265 -9 -5 -29 -19 -46 -31 -92 -64 -614 -324 -651 -324 -11 0 -29 -7 -40 -14
-31 -22 -396 -137 -499 -157 -303 -61 -377 -70 -615 -74 -245 -4 -245 3 0 30
287 30 339 39 295 45 -22 3 -80 2 -130 -1 -91 -7 -240 -9 -175 -2 19 2 67 8
105 14 39 6 144 21 235 34 152 21 358 66 455 100 22 7 86 28 143 46 56 18 102
36 102 41 0 4 10 8 22 8 22 0 83 26 257 107 94 44 522 288 573 327 15 12 57
44 94 71 166 127 206 162 414 368 122 121 191 197 255 282 33 45 77 101 98
126 20 26 37 51 37 57 0 6 16 27 35 47 127 126 417 725 500 1030 39 146 52
203 60 270 3 33 15 105 25 160 33 177 63 376 56 382 -3 3 0 13 6 21 15 18 31
375 23 532 -8 152 -61 532 -86 612 -10 35 -17 50 -14 33 2 -16 13 -102 25
-190 11 -88 22 -170 24 -182 2 -13 0 -23 -3 -23 -3 0 -15 36 -26 81 -18 79
-35 112 -35 67 1 -13 6 -57 11 -98 10 -70 18 -132 35 -273 3 -31 10 -60 15
-63 20 -12 -3 -637 -25 -672 -3 -5 -12 -53 -20 -108 -19 -122 -146 -602 -166
-629 -5 -5 -24 -55 -45 -110 -52 -143 -75 -198 -91 -216 -8 -9 -36 -63 -62
-120 -49 -107 -103 -207 -173 -317 -22 -35 -37 -68 -33 -73 10 -17 -124 -204
-298 -414 -81 -98 -289 -304 -375 -373 -40 -31 -72 -63 -73 -69 0 -7 -6 -13
-12 -13 -7 0 -42 -24 -78 -53 -109 -87 -486 -327 -515 -327 -4 0 -22 -11 -39
-24 -34 -26 -132 -73 -211 -101 -27 -10 -55 -25 -62 -32 -6 -8 -24 -13 -40
-11 -23 2 -4 15 113 75 100 51 139 75 133 84 -8 14 42 50 146 104 114 60 160
88 205 125 25 20 56 43 70 50 14 7 42 28 63 46 20 19 43 34 50 34 7 0 44 29
82 64 39 36 79 73 91 83 11 10 48 43 80 73 33 30 73 67 89 82 51 47 100 100
167 183 74 91 160 217 153 223 -3 3 -44 -36 -92 -86 -102 -104 -246 -228 -250
-215 -2 5 25 39 59 74 80 83 89 94 178 214 40 55 85 115 99 134 14 18 31 42
38 53 6 12 23 37 37 57 40 54 76 111 101 156 12 22 39 69 60 105 78 133 128
238 167 345 54 149 80 222 122 340 20 55 40 123 45 150 6 28 17 69 25 93 9 24
20 94 26 155 6 62 18 139 27 172 34 130 37 175 37 530 0 346 -1 367 -27 530
-43 266 -123 583 -194 770 -8 22 -22 57 -29 78 -8 22 -26 55 -39 75 -14 20
-25 42 -25 48 0 7 -31 71 -70 143 -38 72 -70 134 -70 137 0 4 -123 183 -323
471 -31 45 -57 86 -57 91 0 5 -11 17 -24 26 -14 8 -27 24 -30 34 -4 10 -37 42
-75 71 -38 29 -72 58 -74 66 -8 19 -336 298 -441 375 -141 103 -322 216 -436
271 -58 28 -127 62 -153 76 -59 31 -563 201 -632 213 -27 5 -111 23 -185 41
-157 37 -289 48 -625 56 -286 6 -432 -10 -740 -78 -450 -100 -924 -307 -1250
-545 -38 -28 -92 -66 -120 -85 -60 -40 -145 -108 -200 -159 -329 -306 -346
-323 -443 -469 -43 -64 -149 -221 -236 -349 -204 -301 -301 -497 -390 -792
-48 -159 -83 -287 -91 -335 -4 -22 -22 -119 -41 -216 -25 -129 -35 -213 -38
-320 -5 -143 -11 -234 -23 -359 -10 -117 -22 -35 -22 167 -1 118 3 194 9 198
6 3 10 31 10 62 0 124 22 251 100 592 45 195 32 203 -18 11 -82 -318 -122
-600 -135 -950 -2 -55 -5 -65 -21 -68 -18 -4 -19 4 -13 239 4 152 13 276 22
329 9 47 20 119 25 160 15 120 57 293 116 472 30 92 54 176 53 185 -1 10 -7
-1 -14 -23 -35 -112 -111 -284 -125 -284 -21 0 -15 45 17 120 3 8 16 42 28 75
65 177 87 234 105 275 62 146 94 216 100 220 11 8 40 68 40 83 0 8 20 45 45
83 25 37 45 71 45 75 0 19 74 126 166 239 134 164 433 527 509 616 33 39 83
91 112 115 28 24 54 52 58 62 3 9 11 17 18 17 6 0 72 46 146 103 75 57 152
112 171 124 19 11 98 58 175 105 77 46 172 100 210 120 119 61 355 168 370
168 8 0 43 11 77 24 145 56 459 137 604 156 38 5 110 14 159 20 50 6 113 15
140 20 74 11 460 12 616 0z m-121 -1240 c13 -24 8 -44 -70 -285 -34 -104 -81
-251 -105 -325 -23 -74 -46 -143 -50 -152 -10 -25 12 -23 138 12 212 60 414
82 747 81 314 0 503 -32 676 -116 312 -151 393 -447 216 -789 -108 -211 -288
-394 -579 -593 -218 -149 -333 -209 -1413 -741 -201 -99 -374 -189 -386 -200
-19 -19 -33 -61 -84 -267 -10 -44 -22 -91 -26 -104 l-7 -23 187 7 c489 19
1340 7 1451 -21 l26 -7 -27 -28 c-56 -58 -201 -69 -1004 -76 -360 -3 -658 -8
-662 -12 -11 -11 -259 -1003 -307 -1233 -27 -128 -27 -164 0 -171 19 -5 20 -7
4 -36 -22 -43 -73 -100 -105 -116 -25 -13 -30 -13 -40 1 -7 8 -15 36 -17 62
-5 53 -9 35 197 867 77 308 142 577 146 598 l6 37 -128 -7 c-71 -4 -228 -8
-349 -8 -203 0 -223 2 -260 21 -54 28 -70 69 -46 115 21 39 -11 22 543 293
329 161 398 199 402 218 23 98 70 292 81 333 8 28 26 100 39 160 40 181 210
845 275 1070 89 313 120 435 110 435 -9 0 -70 -22 -279 -102 -227 -87 -606
-264 -970 -453 -141 -74 -205 -73 -167 2 28 53 4 40 557 320 195 99 373 186
395 193 21 7 60 23 85 35 25 13 124 53 220 89 96 37 185 71 197 76 18 7 31 36
63 142 95 306 164 517 192 588 44 112 101 161 128 110z m-3413 -4458 c20 -31
60 -97 90 -145 81 -134 305 -434 393 -526 19 -20 53 -57 75 -82 31 -35 49 -47
80 -52 32 -5 50 -18 88 -59 27 -29 56 -71 66 -93 10 -22 30 -50 45 -62 24 -21
34 -43 20 -43 -8 0 -153 129 -222 199 -45 45 -58 52 -83 49 -26 -4 -32 0 -43
27 -12 29 -68 85 -85 85 -12 0 -51 76 -51 99 0 11 -13 35 -28 53 -74 88 -338
471 -376 545 -47 94 -28 97 31 5z m5577 -748 c-15 -19 -40 -42 -56 -50 -15 -8
-28 -19 -28 -24 0 -5 -18 -19 -40 -30 -75 -38 -51 -10 95 114 44 38 61 32 29
-10z m-4643 -347 c26 -23 55 -47 65 -54 18 -11 18 -12 -1 -12 -25 -1 -119 69
-123 92 -5 26 9 20 59 -26z m189 -148 c0 -5 -7 -9 -15 -9 -8 0 -15 7 -15 15 0
9 6 12 15 9 8 -4 15 -10 15 -15z m444 -121 c35 -23 45 -38 26 -38 -17 0 -65
27 -79 44 -21 25 10 21 53 -6z m234 -116 c15 -10 62 -31 105 -46 43 -16 88
-37 100 -48 l22 -19 -40 6 c-22 4 -46 11 -52 17 -7 6 -18 8 -25 5 -18 -6 -60
11 -54 22 4 5 -11 15 -31 22 -45 14 -83 38 -83 50 0 15 30 10 58 -9z m387
-150 c28 -11 86 -30 130 -42 94 -26 123 -39 85 -40 -20 0 -22 -2 -10 -10 31
-20 -53 -10 -141 16 -62 19 -101 38 -133 64 -67 55 -46 59 69 12z m1128 -289
c-46 -2 -120 -2 -165 0 -46 1 -9 3 82 3 91 0 128 -2 83 -3z"/>
<path d="M4724 7991 c4 -6 19 -11 34 -11 32 0 214 -42 331 -77 45 -13 85 -23
87 -20 8 8 -243 87 -311 98 -129 21 -148 22 -141 10z"/>
<path d="M2827 7824 c-4 -4 -7 -16 -7 -26 0 -13 7 -18 26 -18 21 0 25 4 22 22
-3 23 -27 35 -41 22z"/>
<path d="M5355 7820 c3 -4 25 -15 50 -24 25 -8 43 -11 40 -6 -3 4 -25 15 -50
24 -25 8 -43 11 -40 6z"/>
<path d="M5490 7770 c0 -6 8 -13 18 -16 9 -3 29 -12 44 -20 56 -30 67 -7 12
25 -38 22 -74 28 -74 11z"/>
<path d="M5630 7706 c0 -8 19 -21 43 -31 64 -25 137 -75 137 -94 0 -13 11 -16
57 -16 31 0 57 5 59 10 2 10 -261 145 -283 145 -7 0 -13 -6 -13 -14z"/>
<path d="M6035 7484 c49 -36 93 -64 130 -83 22 -11 50 -29 61 -40 12 -11 25
-17 28 -14 8 9 -14 33 -30 33 -8 0 -14 5 -14 10 0 6 -8 14 -17 18 -35 14 -123
74 -123 83 0 5 -12 9 -27 9 -27 -1 -27 -1 -8 -16z"/>
<path d="M2008 7356 c-5 -24 -2 -26 29 -26 30 0 34 3 31 23 -2 15 -11 23 -29
25 -22 3 -27 -2 -31 -22z"/>
<path d="M6260 7333 c0 -5 24 -24 53 -43 28 -19 62 -44 74 -55 30 -29 72 -50
80 -41 4 4 1 11 -7 16 -8 5 -51 36 -95 69 -74 56 -105 72 -105 54z"/>
<path d="M6540 7105 c44 -44 60 -54 60 -35 0 16 -70 80 -87 80 -12 0 -4 -14
27 -45z"/>
<path d="M6640 7010 c0 -5 5 -10 10 -10 6 0 10 5 10 10 0 6 -4 10 -10 10 -5 0
-10 -4 -10 -10z"/>
<path d="M7056 6549 c4 -8 17 -28 29 -45 11 -17 40 -63 65 -102 25 -39 51 -71
58 -71 21 -1 14 16 -35 85 -27 36 -59 82 -73 102 -24 34 -63 61 -44 31z"/>
<path d="M7239 6293 c5 -10 64 -130 131 -268 130 -268 165 -348 225 -520 21
-60 40 -104 42 -98 5 15 -116 356 -175 493 -25 58 -57 123 -72 145 -15 22 -55
91 -90 153 -34 61 -64 112 -67 112 -2 0 1 -8 6 -17z"/>
<path d="M7145 1961 c-119 -178 -541 -601 -748 -751 -27 -19 -63 -46 -80 -61
-18 -14 -55 -40 -84 -58 -55 -34 -79 -58 -70 -67 3 -3 18 3 34 14 15 10 45 30
65 43 77 50 196 139 229 169 19 18 63 56 99 84 125 101 353 337 475 490 91
115 145 189 145 198 0 23 -24 0 -65 -61z"/>
<path d="M6120 1005 c-7 -8 -8 -15 -2 -15 5 0 15 7 22 15 7 8 8 15 2 15 -5 0
-15 -7 -22 -15z"/>
<path d="M4725 6044 c-16 -2 -73 -9 -125 -15 -158 -18 -535 -110 -562 -137 -5
-5 -17 -37 -27 -73 -10 -35 -37 -127 -59 -204 -73 -252 -244 -891 -312 -1170
-79 -321 -129 -539 -126 -543 5 -4 1228 613 1358 685 295 163 573 367 729 531
102 108 163 195 217 310 33 70 36 85 37 167 0 81 -3 95 -30 143 -83 152 -298
258 -598 297 -106 13 -414 19 -502 9z"/>
<path d="M3200 3604 c-219 -102 -260 -121 -370 -169 -93 -40 -162 -86 -149
-99 8 -8 50 -9 315 -8 l260 2 41 167 c23 92 41 168 40 169 -1 0 -63 -27 -137
-62z"/>
</g>
</svg>
